<?xml version="1.0" encoding="UTF-8"?>
<svg xmlns="http://www.w3.org/2000/svg" version="1.1" viewBox="0 0 1080 1080">
  <!-- Generator: Adobe Illustrator 29.7.1, SVG Export Plug-In . SVG Version: 2.1.1 Build 8)  -->
  <defs>
    <style>
      .st0 {
        fill: #fff;
      }

      .st1 {
        display: none;
      }
    </style>
  </defs>
  <g id="Camada_1">
    <path class="st0" d="M422.27,111.56c8.27,2.6,17.01,3.22,25.44,5.49,12.59,3.38,26.27,9.44,37.55,15.95,5.83,3.37,27.92,17.7,28.94,22.88l-.79,769.73c-107.15,96.57-275.31,14.14-266.89-128.56-61.38-9.24-114.57-56.26-130.13-116.46-2.07-7.99-2.57-16.33-5.14-24.11v-33.43c2.63-8.26,3.19-17.01,5.49-25.43,5.74-20.96,16.84-40.1,29.36-57.61-13.13-20.18-25.04-40.25-30.68-64.05-1.57-6.65-1.7-13.92-4.17-20.06.72-10.83-.98-22.76,0-33.43.57-6.21,3.44-17.67,5.14-24.11,16.04-60.6,68.23-106.88,130.13-116.46-4.27-70.16,37.71-135.32,102.97-160.34l39.33-9.99h33.44Z"/>
    <path class="st0" d="M689.81,111.56c14.39,1.33,34.09,7.71,47.42,13.61,61.7,27.31,98.27,89.39,94.88,156.72,121.3,19.06,176.12,161.01,100.42,258.12,76.52,95.74,19.72,238.7-100.42,257.05,8.36,143.35-160.87,225.52-267.71,127.71v-193.06h55.18c27.47,80.35,148.34,57.52,145.55-27.65-2.7-82.42-119.36-100.15-145.55-22.49h-55.18v-117.01h122.06c27.47,80.35,148.34,57.52,145.55-27.65-2.7-82.42-119.36-100.15-145.55-22.49h-122.06v-117.01h55.18c27.47,80.35,148.34,57.52,145.55-27.65-2.7-82.42-119.36-100.15-145.55-22.49h-55.18v-193.06c19.67-16.96,42.55-30.8,67.84-37.49,6.45-1.7,17.91-4.57,24.12-5.14,8.82-.81,24.63-.81,33.44,0Z"/>
    <path class="st0" d="M111.26,623.05v-167.15c2.48,6.14,2.6,13.42,4.17,20.06,5.63,23.8,17.55,43.87,30.68,64.05-12.52,17.51-23.62,36.65-29.36,57.61-2.31,8.43-2.86,17.17-5.49,25.43Z"/>
    <path class="st0" d="M684.33,347.63c33.18-6.81,42.32,42.94,10.96,49.38-33.18,6.81-42.32-42.94-10.96-49.38Z"/>
    <path class="st0" d="M751.22,514.78c33.18-6.81,42.32,42.94,10.96,49.38-33.18,6.81-42.32-42.94-10.96-49.38Z"/>
    <path class="st0" d="M684.33,681.93c33.18-6.81,42.32,42.94,10.96,49.38-33.18,6.81-42.32-42.94-10.96-49.38Z"/>
  </g>
  <g id="Camada_2" class="st1">
    <g>
      <path class="st0" d="M965.92,141.68v778.38H187.54V141.68h778.38ZM673.08,373.82v-79.66c0-23.94-34.16-55.3-58.43-55.37h-271.57c-30.59,3.86-54.55,27.76-58.42,58.42l.15,272.94c.66,23.76,31.75,57.06,55.22,57.06h79.66c-2.74-10.63-5.43-21.52-6.13-32.56-2.4-37.57-2.58-94.61.08-132.05,3.75-52.87,41.92-91.08,94.83-94.83,37.44-2.66,94.49-2.48,132.05-.08,11.04.71,21.93,3.39,32.56,6.13ZM505.81,433.4c-14.38,2.11-25.73,14.8-26.93,29.21,3.16,43.2-4.3,92.55,0,135.01,1.71,16.89,14.28,28.15,31.02,29.67,42.4,3.86,90.57-3.02,133.6-.05,16.96-2.39,28.08-13.89,29.64-31.05,3.86-42.4-3.02-90.57-.05-133.6-2.25-16.04-13.24-27.9-29.61-29.56-43.14-4.37-93.75,2.9-137.66.38ZM478.86,686.39v79.66c0,23.94,34.16,55.3,58.43,55.37h271.57c30.59-3.86,54.55-27.76,58.42-58.42l-.15-272.94c-.66-23.76-31.75-57.06-55.22-57.06h-79.66c2.74,10.63,5.43,21.52,6.13,32.56,2.4,37.56,2.58,94.61-.08,132.05-3.74,52.72-42.14,91.09-94.83,94.83-37.44,2.66-94.49,2.48-132.05.08-11.04-.71-21.93-3.39-32.56-6.13Z"/>
      <path d="M478.86,686.39c10.63,2.74,21.52,5.43,32.56,6.13,37.56,2.4,94.62,2.58,132.05-.08,52.69-3.74,91.09-42.11,94.83-94.83,2.66-37.44,2.48-94.49.08-132.05-.71-11.04-3.39-21.93-6.13-32.56h79.66c23.48,0,54.56,33.3,55.22,57.06l.15,272.94c-3.87,30.66-27.83,54.56-58.42,58.42h-271.57c-24.27-.07-58.43-31.43-58.43-55.37v-79.66Z"/>
      <path d="M673.08,373.82c-10.63-2.74-21.52-5.43-32.56-6.13-37.57-2.4-94.61-2.58-132.05.08-52.91,3.75-91.08,41.96-94.83,94.83-2.66,37.45-2.48,94.48-.08,132.05.71,11.04,3.39,21.93,6.13,32.56h-79.66c-23.48,0-54.56-33.3-55.22-57.06l-.15-272.94c3.87-30.66,27.83-54.56,58.42-58.42h271.57c24.27.07,58.43,31.43,58.43,55.37v79.66Z"/>
      <path d="M505.81,433.4c43.91,2.52,94.52-4.75,137.66-.38,16.37,1.66,27.36,13.52,29.61,29.56-2.96,43.03,3.91,91.2.05,133.6-1.56,17.16-12.68,28.66-29.64,31.05-43.03-2.96-91.2,3.91-133.6.05-16.74-1.52-29.31-12.78-31.02-29.67-4.3-42.46,3.16-91.81,0-135.01,1.2-14.41,12.55-27.09,26.93-29.21Z"/>
    </g>
  </g>
</svg>