<?xml version="1.0" encoding="UTF-8"?>
<svg xmlns="http://www.w3.org/2000/svg" version="1.1" viewBox="0 0 1080 1080">
  <!-- Generator: Adobe Illustrator 29.7.1, SVG Export Plug-In . SVG Version: 2.1.1 Build 8)  -->
  <defs>
    <style>
      .st0 {
        fill: #fff;
      }

      .st1 {
        display: none;
      }
    </style>
  </defs>
  <g id="Camada_1" class="st1">
    <g>
      <path class="st0" d="M422.27,111.56c8.27,2.6,17.01,3.22,25.44,5.49,12.59,3.38,26.27,9.44,37.55,15.95,5.83,3.37,27.92,17.7,28.94,22.88l-.79,769.73c-107.15,96.57-275.31,14.14-266.89-128.56-61.38-9.24-114.57-56.26-130.13-116.46-2.07-7.99-2.57-16.33-5.14-24.11v-33.43c2.63-8.26,3.19-17.01,5.49-25.43,5.74-20.96,16.84-40.1,29.36-57.61-13.13-20.18-25.04-40.25-30.68-64.05-1.57-6.65-1.7-13.92-4.17-20.06.72-10.83-.98-22.76,0-33.43.57-6.21,3.44-17.67,5.14-24.11,16.04-60.6,68.23-106.88,130.13-116.46-4.27-70.16,37.71-135.32,102.97-160.34l39.33-9.99h33.44Z"/>
      <path class="st0" d="M689.81,111.56c14.39,1.33,34.09,7.71,47.42,13.61,61.7,27.31,98.27,89.39,94.88,156.72,121.3,19.06,176.12,161.01,100.42,258.12,76.52,95.74,19.72,238.7-100.42,257.05,8.36,143.35-160.87,225.52-267.71,127.71v-193.06h55.18c27.47,80.35,148.34,57.52,145.55-27.65-2.7-82.42-119.36-100.15-145.55-22.49h-55.18v-117.01h122.06c27.47,80.35,148.34,57.52,145.55-27.65-2.7-82.42-119.36-100.15-145.55-22.49h-122.06v-117.01h55.18c27.47,80.35,148.34,57.52,145.55-27.65-2.7-82.42-119.36-100.15-145.55-22.49h-55.18v-193.06c19.67-16.96,42.55-30.8,67.84-37.49,6.45-1.7,17.91-4.57,24.12-5.14,8.82-.81,24.63-.81,33.44,0Z"/>
      <path class="st0" d="M111.26,623.05v-167.15c2.48,6.14,2.6,13.42,4.17,20.06,5.63,23.8,17.55,43.87,30.68,64.05-12.52,17.51-23.62,36.65-29.36,57.61-2.31,8.43-2.86,17.17-5.49,25.43Z"/>
      <path class="st0" d="M684.33,347.63c33.18-6.81,42.32,42.94,10.96,49.38-33.18,6.81-42.32-42.94-10.96-49.38Z"/>
      <path class="st0" d="M751.22,514.78c33.18-6.81,42.32,42.94,10.96,49.38-33.18,6.81-42.32-42.94-10.96-49.38Z"/>
      <path class="st0" d="M684.33,681.93c33.18-6.81,42.32,42.94,10.96,49.38-33.18,6.81-42.32-42.94-10.96-49.38Z"/>
    </g>
  </g>
  <g id="Camada_2">
    <g>
      <path class="st0" d="M398.61,767.56c15.48,4,31.33,7.9,47.41,8.93,54.69,3.49,137.77,3.76,192.28-.12,76.72-5.45,132.63-61.32,138.08-138.08,3.87-54.51,3.61-137.58.12-192.28-1.03-16.08-4.93-31.93-8.93-47.41h115.99c34.18,0,79.45,48.49,80.41,83.08l.21,397.42c-5.64,44.64-40.52,79.44-85.06,85.06h-395.42c-35.34-.1-85.08-45.76-85.08-80.62v-115.99Z"/>
      <path class="st0" d="M681.39,312.44c-15.48-4-31.33-7.9-47.41-8.93-54.7-3.5-137.76-3.75-192.28.12-77.04,5.47-132.62,61.1-138.08,138.08-3.87,54.52-3.61,137.57-.12,192.28,1.03,16.08,4.93,31.93,8.93,47.41h-115.99c-34.18,0-79.45-48.49-80.41-83.08l-.21-397.42c5.64-44.64,40.52-79.44,85.06-85.06h395.42c35.34.1,85.08,45.76,85.08,80.62v115.99Z"/>
      <path class="st0" d="M437.85,399.18c63.94,3.67,137.62-6.91,200.44-.55,23.84,2.41,39.84,19.69,43.12,43.04-4.32,62.65,5.69,132.79.08,194.52-2.27,24.99-18.47,41.74-43.16,45.21-62.65-4.32-132.79,5.69-194.52.08-24.38-2.22-42.68-18.61-45.17-43.2-6.26-61.82,4.6-133.67,0-196.57,1.75-20.98,18.28-39.45,39.22-42.53Z"/>
    </g>
  </g>
</svg>